<svg width="1163" height="1261" viewBox="0 0 1163 1261" fill="none" xmlns="http://www.w3.org/2000/svg">
    <circle cx="849.538" cy="311.464" r="310.963" stroke="#F37BDA" stroke-opacity="0.4"/>
    <line x1="850.072" y1="622.925" x2="850.072" y2="-0.000244141" stroke="#F37BDA" stroke-opacity="0.4"/>
    <line x1="538.075" y1="312" x2="1161" y2="312" stroke="#F37BDA" stroke-opacity="0.4"/>
    <circle cx="539.11" cy="621.892" r="310.963" stroke="#F37BDA" stroke-opacity="0.4"/>
    <line x1="539.645" y1="933.354" x2="539.645" y2="310.428" stroke="#F37BDA" stroke-opacity="0.4"/>
    <line x1="227.647" y1="622.425" x2="850.573" y2="622.425" stroke="#F37BDA" stroke-opacity="0.4"/>
    <circle cx="456.33" cy="932.321" r="310.963" stroke="#F37BDA" stroke-opacity="0.4"/>
    <line x1="456.864" y1="1243.78" x2="456.864" y2="620.856" stroke="#F37BDA" stroke-opacity="0.4"/>
    <line x1="144.867" y1="932.854" x2="767.792" y2="932.854" stroke="#F37BDA" stroke-opacity="0.4"/>
    <circle cx="456.329" cy="932.319" r="228.182" stroke="#F37BDA" stroke-opacity="0.4"/>
    <line x1="456.864" y1="1161" x2="456.864" y2="703.636" stroke="#F37BDA" stroke-opacity="0.4"/>
    <line x1="227.647" y1="932.854" x2="685.011" y2="932.854" stroke="#F37BDA" stroke-opacity="0.4"/>
    <circle cx="570.152" cy="818.496" r="114.358" stroke="#F37BDA" stroke-opacity="0.4"/>
    <line x1="455.294" y1="705.206" x2="834.016" y2="705.206" stroke="#F37BDA" stroke-opacity="0.4"/>
    <line x1="849.003" y1="718.123" x2="849.003" y2="819.529" stroke="#F37BDA" stroke-opacity="0.4"/>
    <circle cx="735.714" cy="818.496" r="114.358" stroke="#F37BDA" stroke-opacity="0.4"/>
    <line x1="735.179" y1="703.638" x2="735.179" y2="933.354" stroke="#F37BDA" stroke-opacity="0.4"/>
    <line x1="618.786" y1="819.032" x2="848.503" y2="819.032" stroke="#F37BDA" stroke-opacity="0.4"/>
    <circle cx="570.152" cy="1046.14" r="114.358" stroke="#F37BDA" stroke-opacity="0.4"/>
    <circle cx="228.682" cy="1031.66" r="228.182" stroke="#F37BDA" stroke-opacity="0.4"/>
    <line y1="1032.19" x2="457.364" y2="1032.19" stroke="#F37BDA" stroke-opacity="0.4"/>
    <circle cx="835.051" cy="719.159" r="15.0214" stroke="#F37BDA" stroke-opacity="0.4"/>
    <line x1="834.517" y1="703.638" x2="834.517" y2="734.68" stroke="#F37BDA" stroke-opacity="0.4"/>
    <line x1="819.529" y1="719.693" x2="850.572" y2="719.693" stroke="#F37BDA" stroke-opacity="0.4"/>
    <path d="M1146.51 312.5C1155.83 312.5 1161 319.743 1161 326.987C1161 464.61 1037.86 622.928 850.571 622.928H457.363C373.547 622.928 301.114 657.075 254.55 698.465C249.583 702.604 246.272 702.604 244.202 702.604C235.097 702.604 229.716 695.361 229.716 688.118V622.928C229.716 450.123 369.408 312.5 540.144 312.5H1146.51Z" stroke="#F37BDA" stroke-opacity="0.4" stroke-width="3"/>
    <path d="M836.085 705.706C843.328 705.706 850.571 711.915 850.571 720.193L850.571 819.53C850.571 887.824 794.694 933.353 736.748 933.353H571.186C487.371 933.353 457.363 993.369 457.363 1040.97C457.363 1040.97 457.002 1050.67 456.45 1056.49C446.17 1164.87 351.244 1256.33 244.202 1259.3C235.927 1259.53 229.716 1253.09 229.716 1245.85V933.353C229.716 805.043 334.227 705.706 457.363 705.706H836.085Z" stroke="#F37BDA" stroke-opacity="0.4" stroke-width="3"/>
</svg>
